<?xml version="1.0" standalone="no"?><!DOCTYPE svg PUBLIC "-//W3C//DTD SVG 1.1//EN" "http://www.w3.org/Graphics/SVG/1.1/DTD/svg11.dtd"><svg t="1717652300420" class="icon" viewBox="0 0 1024 1024" version="1.1" xmlns="http://www.w3.org/2000/svg" p-id="3366" xmlns:xlink="http://www.w3.org/1999/xlink" width="200" height="200"><path d="M0 0m155.8272 0l712.3456 0q155.8272 0 155.8272 155.8272l0 712.3456q0 155.8272-155.8272 155.8272l-712.3456 0q-155.8272 0-155.8272-155.8272l0-712.3456q0-155.8272 155.8272-155.8272Z" fill="#000000" p-id="3367"></path><path d="M494.34624 532.5056v42.624l-13.47584-0.00512v35.89632h13.47584v42.624l-13.47584-0.00512V732.16H337.13664l-0.00512-0.00512-16.512 0.00512-62.09024-52.55168h78.60736v9.9328l98.816-0.00512v-35.89632H258.52928v-42.61888h177.42336v-35.89632H258.52928v-42.61888h235.81696z m248.50432 197.41184l-62.09536-52.55168h78.60736v9.9328l80.84992-0.00512V373.22752h-40.42752v280.41728h-40.4224l-0.00512-280.41728h-38.17984v280.41728h-40.4224V296.96h40.42752l-0.00512 33.64864H880.64v399.3088h-137.78944zM224.83968 375.4752v354.44224h-44.91776V418.09408H148.48v-42.61888h76.35968zM647.0656 296.96v33.64864h13.47584v42.624l-13.47584-0.00512v237.79328h13.47584v42.624l-13.47584-0.00512v76.27776h-40.4224l-0.00512-76.27776h-80.8448v-42.61888h80.8448V373.22752h-40.42752l0.00512 201.90208h-40.42752V319.3856h40.42752l-0.00512 11.21792h40.42752V296.96h40.42752z m-152.71936 0v199.6544H258.52928V296.96h235.81696zM449.4336 418.09408H303.44192v35.89632h145.98656v-35.89632z m0-78.5152H303.44192v35.89632h145.98656v-35.89632zM224.83968 296.96v42.624H148.48V296.96h76.35968z" fill="#FFFFFF" p-id="3368"></path></svg>